<svg width="30" height="30" viewBox="0 0 30 30" fill="none" xmlns="http://www.w3.org/2000/svg">
<g clip-path="url(#clip0_1_796)">
<path d="M17.8998 29.3032C18.8695 29.3032 19.715 28.4577 19.715 27.488V23.2487H20.9271C21.6544 23.2487 22.1391 22.7638 22.1391 22.0367V9.92859H7.60608V22.0368C7.60608 22.764 8.0909 23.2488 8.81813 23.2488H10.0303V27.4881C10.0303 28.4578 10.8757 29.3033 11.8455 29.3033C12.815 29.3033 13.6605 28.4578 13.6605 27.4881V23.2488H16.0847V27.4881C16.0846 28.4577 16.9302 29.3032 17.8998 29.3032Z" fill="#B4BAC2"/>
<path d="M25.1665 22.0368C26.1362 22.0368 26.9816 21.1913 26.9816 20.2216V11.743C26.9816 10.7785 26.1362 9.92859 25.1665 9.92859C24.1968 9.92859 23.3513 10.7785 23.3513 11.743V20.2216C23.3513 21.1912 24.1967 22.0368 25.1665 22.0368Z" fill="#B4BAC2"/>
<path d="M4.57882 22.0368C5.54855 22.0368 6.39403 21.1913 6.39403 20.2216V11.743C6.39403 10.7785 5.54865 9.92859 4.57882 9.92859C3.60918 9.92859 2.76379 10.7785 2.76379 11.743V20.2216C2.76379 21.1912 3.60918 22.0368 4.57882 22.0368Z" fill="#B4BAC2"/>
<path d="M20.6846 0.486118C20.4423 0.242257 20.0815 0.242257 19.8392 0.486118L18.2135 2.10634L18.1385 2.18124C17.1746 1.69855 16.0939 1.4575 14.8904 1.45518C14.8845 1.45518 14.8787 1.45498 14.8727 1.45498H14.8726C14.8665 1.45498 14.8608 1.45518 14.8547 1.45518C13.6513 1.4575 12.5706 1.69855 11.6068 2.18124L11.5316 2.10634L9.90602 0.486118C9.66351 0.242257 9.30294 0.242257 9.06063 0.486118C8.81813 0.728625 8.81813 1.08851 9.06063 1.33083L10.6331 2.90363C10.1265 3.24194 9.66699 3.65592 9.26743 4.12942C8.31086 5.26328 7.70072 6.73893 7.61682 8.33776C7.61605 8.35441 7.6144 8.37086 7.61363 8.3875C7.6085 8.49637 7.60608 8.60582 7.60608 8.71565H22.1391C22.1391 8.60582 22.1365 8.49637 22.1316 8.3875C22.1308 8.37086 22.1292 8.35441 22.1282 8.33776C22.0445 6.73893 21.4342 5.26318 20.4776 4.12952C20.0782 3.65602 19.6186 3.24204 19.1119 2.90373L20.6846 1.33092C20.9271 1.08851 20.9271 0.728625 20.6846 0.486118ZM11.8432 6.59938C11.3417 6.59938 10.9352 6.19285 10.9352 5.69139C10.9352 5.18992 11.3417 4.78339 11.8432 4.78339C12.3446 4.78339 12.7512 5.18992 12.7512 5.69139C12.7512 6.19285 12.3446 6.59938 11.8432 6.59938ZM17.902 6.59938C17.4006 6.59938 16.994 6.19285 16.994 5.69139C16.994 5.18992 17.4006 4.78339 17.902 4.78339C18.4035 4.78339 18.81 5.18992 18.81 5.69139C18.81 6.19285 18.4035 6.59938 17.902 6.59938Z" fill="#B4BAC2"/>
</g>
<defs>
<clipPath id="clip0_1_796">
<rect width="29" height="29" fill="white" transform="translate(0.372559 0.303223)"/>
</clipPath>
</defs>
</svg>
