<svg width="30" height="27" viewBox="0 0 30 27" fill="none" xmlns="http://www.w3.org/2000/svg">
<path d="M27.4134 5.86728C27.413 7.01963 27.0431 8.14149 26.358 9.06807C25.6729 9.99465 24.7087 10.6771 23.6071 11.0152C23.8594 10.193 23.9872 9.33773 23.9863 8.47772C23.9864 6.96285 23.5925 5.47399 22.8434 4.15731C22.0943 2.84063 21.0156 1.74139 19.7134 0.967485C20.4353 0.632328 21.2216 0.458114 22.0175 0.456909C23.4504 0.459409 24.8236 1.0307 25.8353 2.04521C26.8471 3.05973 27.4147 4.43447 27.4134 5.86728ZM26.3196 12.5612C25.707 12.3895 25.0513 12.4682 24.4967 12.7799C23.8731 13.1257 23.181 13.3297 22.4697 13.3777C22.1751 13.8266 21.8328 14.2422 21.4488 14.6174C22.8265 15.0708 24.053 15.8941 24.9944 16.9975C25.9357 18.1009 26.5556 19.4418 26.7863 20.8737H27.7925C28.1157 20.8782 28.4341 20.7952 28.714 20.6335C28.9938 20.4718 29.2247 20.2374 29.3822 19.9551C29.6717 19.412 29.822 18.8056 29.8197 18.1902V17.1548C29.8196 14.9818 28.3759 13.1005 26.3196 12.5612ZM10.7592 0.967485C10.0372 0.632328 9.25103 0.458114 8.45504 0.456909C7.16297 0.457806 5.91406 0.922013 4.93507 1.76524C3.95608 2.60847 3.31193 3.77481 3.11959 5.05249C2.92724 6.33016 3.19945 7.63445 3.88678 8.72854C4.57412 9.82262 5.63101 10.634 6.86555 11.0152C6.61326 10.193 6.48542 9.33774 6.48629 8.47772C6.48621 6.96285 6.88007 5.47399 7.62919 4.15731C8.37832 2.84063 9.45696 1.74139 10.7592 0.967485ZM9.02379 14.6173C8.63974 14.2421 8.29745 13.8264 8.00291 13.3775C7.29154 13.3296 6.59946 13.1255 5.97592 12.7798C5.42131 12.4681 4.7656 12.3894 4.15298 12.561C2.09666 13.1004 0.652981 14.9817 0.652981 17.1548V18.1901C0.650641 18.8055 0.800961 19.4119 1.09048 19.955C1.24625 20.2355 1.47473 20.4689 1.75191 20.6305C2.02908 20.7922 2.34469 20.8761 2.66555 20.8736H3.68629C3.91698 19.4417 4.53687 18.1008 5.4782 16.9974C6.41954 15.894 7.64609 15.0706 9.02379 14.6173ZM20.4572 16.6007C20.2043 16.5372 19.9449 16.5029 19.6842 16.4986C19.1785 16.4997 18.6814 16.6302 18.2405 16.8778C17.3204 17.3848 16.2869 17.6507 15.2363 17.6507C14.1857 17.6507 13.1522 17.3848 12.2321 16.8778C11.7911 16.6302 11.2941 16.4997 10.7884 16.4986C10.5277 16.5029 10.2683 16.5372 10.0154 16.6007C8.78982 16.9331 7.70816 17.6606 6.93822 18.6704C6.16828 19.6802 5.7531 20.9158 5.7571 22.1857V23.4546C5.75758 24.1981 5.94303 24.9297 6.29673 25.5837C6.66129 26.2836 7.39048 26.7066 8.2071 26.7066H22.2655C23.0821 26.7066 23.8113 26.2836 24.1759 25.5837C24.5296 24.9297 24.715 24.1981 24.7155 23.4546V22.186C24.7195 20.9161 24.3044 19.6803 23.5345 18.6705C22.7645 17.6606 21.6828 16.9331 20.4572 16.6007ZM21.7988 8.47772C21.7988 7.17978 21.4139 5.91099 20.6928 4.83179C19.9717 3.75259 18.9468 2.91146 17.7477 2.41476C16.5485 1.91806 15.229 1.7881 13.956 2.04132C12.683 2.29453 11.5137 2.91955 10.5959 3.83733C9.67812 4.75511 9.0531 5.92444 8.79989 7.19744C8.54667 8.47044 8.67663 9.78994 9.17333 10.9891C9.67003 12.1882 10.5112 13.2131 11.5904 13.9342C12.6696 14.6553 13.9384 15.0402 15.2363 15.0402C16.9768 15.0402 18.646 14.3488 19.8767 13.1181C21.1074 11.8874 21.7988 10.2182 21.7988 8.47772Z" fill="#FCAA19"/>
</svg>
