<svg width="38" height="38" viewBox="0 0 38 38" fill="none" xmlns="http://www.w3.org/2000/svg">
<rect width="37.6528" height="37.6528" fill="#6A88ED"/>
<g clip-path="url(#clip0_1_871)">
<path d="M26.0681 12.3103C24.7362 11.7109 23.3079 11.2693 21.8145 11.0164C21.7873 11.0115 21.7601 11.0237 21.7461 11.0481C21.5624 11.3685 21.359 11.7865 21.2165 12.1151C19.6103 11.8792 18.0123 11.8792 16.439 12.1151C16.2965 11.7792 16.0857 11.3685 15.9011 11.0481C15.8871 11.0245 15.8599 11.0123 15.8328 11.0164C14.3402 11.2685 12.912 11.7101 11.5792 12.3103C11.5676 12.3152 11.5577 12.3233 11.5512 12.3339C8.84203 16.3035 8.09985 20.1755 8.46392 23.9995C8.46555 24.0182 8.47629 24.0361 8.4911 24.0475C10.2785 25.3349 12.01 26.1165 13.7092 26.6345C13.7364 26.6427 13.7652 26.6329 13.7825 26.611C14.1845 26.0726 14.5428 25.5049 14.85 24.908C14.8681 24.873 14.8508 24.8315 14.8138 24.8177C14.2454 24.6062 13.7043 24.3484 13.1837 24.0557C13.1425 24.0321 13.1392 23.9743 13.1771 23.9467C13.2866 23.8662 13.3962 23.7824 13.5008 23.6978C13.5198 23.6823 13.5461 23.6791 13.5684 23.6888C16.9884 25.2203 20.6909 25.2203 24.0705 23.6888C24.0928 23.6783 24.1191 23.6815 24.1389 23.697C24.2435 23.7815 24.3531 23.8661 24.4635 23.9466C24.5013 23.9743 24.4988 24.0321 24.4577 24.0556C23.9371 24.3541 23.3959 24.6062 22.8268 24.8168C22.7897 24.8307 22.7732 24.873 22.7914 24.9079C23.1052 25.504 23.4635 26.0717 23.858 26.6101C23.8745 26.6329 23.9042 26.6427 23.9313 26.6345C25.6388 26.1165 27.3703 25.3349 29.1577 24.0475C29.1734 24.0361 29.1833 24.019 29.1849 24.0003C29.6207 19.5793 28.4551 15.739 26.0952 12.3347C26.0895 12.3233 26.0796 12.3152 26.0681 12.3103ZM15.3608 21.6711C14.3312 21.6711 13.4828 20.744 13.4828 19.6054C13.4828 18.4668 14.3147 17.5397 15.3608 17.5397C16.4151 17.5397 17.2553 18.4749 17.2388 19.6054C17.2388 20.744 16.4069 21.6711 15.3608 21.6711ZM22.3046 21.6711C21.275 21.6711 20.4266 20.744 20.4266 19.6054C20.4266 18.4668 21.2585 17.5397 22.3046 17.5397C23.3589 17.5397 24.1991 18.4749 24.1826 19.6054C24.1826 20.744 23.359 21.6711 22.3046 21.6711Z" fill="white"/>
</g>
<defs>
<clipPath id="clip0_1_871">
<rect width="20.8974" height="20.4955" fill="white" transform="translate(8.37756 8.57861)"/>
</clipPath>
</defs>
</svg>
