<svg width="39" height="39" viewBox="0 0 39 39" fill="none" xmlns="http://www.w3.org/2000/svg">
<rect x="0.986572" y="0.55719" width="37.6528" height="37.6528" fill="url(#paint0_linear_1_876)"/>
<g clip-path="url(#clip0_1_876)">
<path d="M25.8873 12.8016C25.6076 12.8016 25.38 13.0293 25.38 13.309C25.38 13.5887 25.6076 13.8163 25.8873 13.8163C26.1671 13.8163 26.3947 13.5887 26.3947 13.309C26.3947 13.0292 26.1671 12.8016 25.8873 12.8016Z" fill="white"/>
<path d="M19.8129 14.8859C17.3328 14.8859 15.3152 16.9035 15.3152 19.3835C15.3152 21.8635 17.3328 23.8812 19.8129 23.8812C22.2929 23.8812 24.3106 21.8636 24.3106 19.3836C24.3106 16.9036 22.2929 14.8859 19.8129 14.8859Z" fill="white"/>
<path d="M24.5328 8.93488H15.0928C11.934 8.93488 9.36414 11.5048 9.36414 14.6636V24.1035C9.36414 27.2624 11.934 29.8322 15.0928 29.8322H24.5328C27.6916 29.8322 30.2615 27.2623 30.2615 24.1035V14.6636C30.2615 11.5048 27.6916 8.93488 24.5328 8.93488ZM19.8128 25.1153C16.6523 25.1153 14.0811 22.5441 14.0811 19.3836C14.0811 16.223 16.6523 13.6519 19.8128 13.6519C22.9733 13.6519 25.5446 16.2231 25.5446 19.3836C25.5446 22.544 22.9733 25.1153 19.8128 25.1153ZM25.8874 15.0505C24.9272 15.0505 24.146 14.2693 24.146 13.309C24.146 12.3488 24.9272 11.5676 25.8874 11.5676C26.8476 11.5676 27.6288 12.3488 27.6288 13.309C27.6288 14.2692 26.8476 15.0505 25.8874 15.0505Z" fill="white"/>
</g>
<defs>
<linearGradient id="paint0_linear_1_876" x1="38.6393" y1="1.91121" x2="2.72173" y2="35.6241" gradientUnits="userSpaceOnUse">
<stop stop-color="#BE2391"/>
<stop offset="0.541667" stop-color="#E63732"/>
<stop offset="1" stop-color="#F7C141"/>
</linearGradient>
<clipPath id="clip0_1_876">
<rect width="20.8974" height="20.8974" fill="white" transform="translate(9.36414 8.93488)"/>
</clipPath>
</defs>
</svg>
