<svg width="39" height="39" viewBox="0 0 39 39" fill="none" xmlns="http://www.w3.org/2000/svg">
<rect x="0.625854" y="0.55719" width="37.6528" height="37.6528" fill="#38A8FF"/>
<g clip-path="url(#clip0_1_867)">
<path d="M17.1167 22.2599L16.7577 27.309C17.2713 27.309 17.4937 27.0884 17.7605 26.8234L20.1684 24.5222L25.1579 28.1761C26.0729 28.6861 26.7176 28.4175 26.9645 27.3343L30.2395 11.988L30.2404 11.9871C30.5307 10.6344 29.7513 10.1054 28.8597 10.4373L9.60902 17.8075C8.2952 18.3175 8.31509 19.0499 9.38568 19.3817L14.3073 20.9126L25.7393 13.7594C26.2773 13.4031 26.7664 13.6002 26.3641 13.9565L17.1167 22.2599Z" fill="white"/>
</g>
<defs>
<clipPath id="clip0_1_867">
<rect width="21.7011" height="21.7011" fill="white" transform="translate(8.60168 8.53302)"/>
</clipPath>
</defs>
</svg>
